{
  "accessors": [
    {
      "bufferView": 0,
      "componentType": 5125,
      "count": 132,
      "type": "SCALAR"
    },
    {
      "bufferView": 1,
      "componentType": 5126,
      "count": 96,
      "max": [
        -1.41722083091736,
        1.50071597099304,
        -0.258285522460938
      ],
      "min": [
        -2.78545093536377,
        0.132486939430237,
        -1.62651085853577
      ],
      "type": "VEC3"
    },
    {
      "bufferView": 2,
      "componentType": 5126,
      "count": 96,
      "type": "VEC3"
    },
    {
      "bufferView": 3,
      "componentType": 5126,
      "count": 96,
      "type": "VEC4"
    },
    {
      "bufferView": 4,
      "componentType": 5126,
      "count": 96,
      "type": "VEC2"
    }
  ],
  "asset": {
    "generator": "Adobe Substance 3D Painter 11.0.2",
    "version": "2.0"
  },
  "bufferViews": [
    {
      "buffer": 0,
      "byteLength": 528,
      "target": 34963
    },
    {
      "buffer": 0,
      "byteLength": 1152,
      "byteOffset": 528,
      "target": 34962
    },
    {
      "buffer": 0,
      "byteLength": 1152,
      "byteOffset": 1680,
      "target": 34962
    },
    {
      "buffer": 0,
      "byteLength": 1536,
      "byteOffset": 2832,
      "target": 34962
    },
    {
      "buffer": 0,
      "byteLength": 768,
      "byteOffset": 4368,
      "target": 34962
    }
  ],
  "buffers": [
    {
      "byteLength": 5136,
      "uri": "GyumaTexturesV4.bin"
    }
  ],
  "images": [
    {
      "uri": "D6_baseColor_1001.png"
    },
    {
      "uri": "D6_occlusionRoughnessMetallic_1001.png"
    },
    {
      "uri": "D6_normal_1001.png"
    }
  ],
  "materials": [
    {
      "alphaMode": "OPAQUE",
      "name": "D6_1001",
      "normalTexture": {
        "index": 2
      },
      "occlusionTexture": {
        "index": 1
      },
      "pbrMetallicRoughness": {
        "baseColorTexture": {
          "index": 0
        },
        "metallicRoughnessTexture": {
          "index": 1
        }
      }
    }
  ],
  "meshes": [
    {
      "name": "polySurface3",
      "primitives": [
        {
          "attributes": {
            "NORMAL": 2,
            "POSITION": 1,
            "TANGENT": 3,
            "TEXCOORD_0": 4
          },
          "indices": 0,
          "material": 0,
          "mode": 4
        }
      ]
    }
  ],
  "nodes": [
    {
      "children": [
        1,
        9
      ],
      "name": "RootNode",
      "scale": [
        0.00999999977648258,
        0.00999999977648258,
        0.00999999977648258
      ]
    },
    {
      "children": [
        2,
        3,
        4,
        6,
        7,
        8
      ],
      "name": "DiceWood:pasted__pCone2_pasted__pCone3"
    },
    {
      "name": "polySurface1",
      "translation": [
        0.0,
        -0.177523300051689,
        0.0
      ]
    },
    {
      "name": "polySurface2",
      "translation": [
        0.0,
        0.572019517421722,
        0.0
      ]
    },
    {
      "children": [
        5
      ],
      "name": "polySurface3",
      "translation": [
        0.0,
        0.177523300051689,
        0.0
      ]
    },
    {
      "mesh": 0,
      "name": "polySurface3"
    },
    {
      "name": "polySurface4",
      "translation": [
        0.0,
        0.236697748303413,
        0.0
      ]
    },
    {
      "name": "polySurface5",
      "translation": [
        0.0,
        -0.0197248123586178,
        -0.360995084047318
      ]
    },
    {
      "name": "polySurface8",
      "translation": [
        0.0,
        -0.0197248123586178,
        4.29563808441162
      ]
    },
    {
      "name": "pCone1",
      "translation": [
        -0.464525640010834,
        0.157798498868942,
        -0.360995084047318
      ]
    }
  ],
  "samplers": [
    {
      "magFilter": 9729,
      "minFilter": 9985,
      "wrapS": 10497,
      "wrapT": 10497
    }
  ],
  "scene": 0,
  "scenes": [
    {
      "name": "Scene",
      "nodes": [
        0
      ]
    }
  ],
  "textures": [
    {
      "sampler": 0,
      "source": 0
    },
    {
      "sampler": 0,
      "source": 1
    },
    {
      "sampler": 0,
      "source": 2
    }
  ]
}