{
  "accessors": [
    {
      "bufferView": 2,
      "componentType": 5126,
      "count": 342,
      "max": [
        0.007577419746667147, 0.007581378798931837, 0.0075781624764204025
      ],
      "min": [
        -0.007577419746667147, -0.007581378798931837, -0.0075781624764204025
      ],
      "type": "VEC3"
    },
    {
      "bufferView": 2,
      "byteOffset": 4104,
      "componentType": 5126,
      "count": 342,
      "max": [1.0, 1.0, 1.0],
      "min": [-1.0, -1.0, -1.0],
      "type": "VEC3"
    },
    {
      "bufferView": 3,
      "componentType": 5126,
      "count": 342,
      "max": [0.7058843970298767, 0.998507559299469, 0.9985329508781433, 1.0],
      "min": [
        -0.7058843374252319, -0.706523597240448, -0.9985329508781433, 1.0
      ],
      "type": "VEC4"
    },
    {
      "bufferView": 1,
      "componentType": 5126,
      "count": 342,
      "max": [0.9998003244400024, 0.9996424317359924],
      "min": [0.0001997535437112674, 0.0001997535437112674],
      "type": "VEC2"
    },
    {
      "bufferView": 1,
      "byteOffset": 2736,
      "componentType": 5126,
      "count": 342,
      "max": [0.9998003244400024, 0.9996424317359924],
      "min": [0.0001997535437112674, 0.0001997535437112674],
      "type": "VEC2"
    },
    {
      "bufferView": 1,
      "byteOffset": 5472,
      "componentType": 5126,
      "count": 342,
      "max": [0.9998003244400024, 0.9996424317359924],
      "min": [0.0001997535437112674, 0.0001997535437112674],
      "type": "VEC2"
    },
    {
      "bufferView": 0,
      "componentType": 5125,
      "count": 1728,
      "type": "SCALAR"
    },
    {
      "bufferView": 2,
      "byteOffset": 8208,
      "componentType": 5126,
      "count": 12937,
      "max": [
        0.0075614722445607185, 0.007548506837338209, 0.007541387341916561
      ],
      "min": [
        -0.007558833342045546, -0.00758352130651474, -0.007575531955808401
      ],
      "type": "VEC3"
    },
    {
      "bufferView": 2,
      "byteOffset": 163452,
      "componentType": 5126,
      "count": 12937,
      "max": [1.0, 1.0, 1.0],
      "min": [-1.0, -1.0, -1.0],
      "type": "VEC3"
    },
    {
      "bufferView": 3,
      "byteOffset": 5472,
      "componentType": 5126,
      "count": 12937,
      "max": [0.9999744296073914, 0.9999534487724304, 0.7070336937904358, 1.0],
      "min": [
        -0.7070258259773254, -0.9999757409095764, -0.9999697208404541, 1.0
      ],
      "type": "VEC4"
    },
    {
      "bufferView": 1,
      "byteOffset": 8208,
      "componentType": 5126,
      "count": 12937,
      "max": [0.9972050189971924, 0.9980230331420898],
      "min": [0.0019770204089581966, 0.0019770204089581966],
      "type": "VEC2"
    },
    {
      "bufferView": 1,
      "byteOffset": 111704,
      "componentType": 5126,
      "count": 12937,
      "max": [0.9972050189971924, 0.9980230331420898],
      "min": [0.0019770204089581966, 0.0019770204089581966],
      "type": "VEC2"
    },
    {
      "bufferView": 1,
      "byteOffset": 215200,
      "componentType": 5126,
      "count": 12937,
      "max": [0.9972050189971924, 0.9980230331420898],
      "min": [0.0019770204089581966, 0.0019770204089581966],
      "type": "VEC2"
    },
    {
      "bufferView": 0,
      "byteOffset": 6912,
      "componentType": 5125,
      "count": 71520,
      "type": "SCALAR"
    }
  ],
  "asset": {
    "extras": {
      "author": "vojtaklemperer (https://sketchfab.com/vojtaklemperer)",
      "license": "CC-BY-4.0 (http://creativecommons.org/licenses/by/4.0/)",
      "source": "https://sketchfab.com/3d-models/dice-low-and-high-poly-49e06b3cb50a4a6087f5f64cbb3566a3",
      "title": "Dice (low and high poly)"
    },
    "generator": "Sketchfab-12.68.0",
    "version": "2.0"
  },
  "bufferViews": [
    {
      "buffer": 0,
      "byteLength": 292992,
      "name": "floatBufferViews",
      "target": 34963
    },
    {
      "buffer": 0,
      "byteLength": 318696,
      "byteOffset": 292992,
      "byteStride": 8,
      "name": "floatBufferViews",
      "target": 34962
    },
    {
      "buffer": 0,
      "byteLength": 318696,
      "byteOffset": 611688,
      "byteStride": 12,
      "name": "floatBufferViews",
      "target": 34962
    },
    {
      "buffer": 0,
      "byteLength": 212464,
      "byteOffset": 930384,
      "byteStride": 16,
      "name": "floatBufferViews",
      "target": 34962
    }
  ],
  "buffers": [
    {
      "byteLength": 1142848,
      "uri": "d6.bin"
    }
  ],
  "images": [
    {
      "uri": "textures/dice_lowpoly_baseColor.jpeg"
    },
    {
      "uri": "textures/dice_lowpoly_metallicRoughness.png"
    },
    {
      "uri": "textures/dice_lowpoly_normal.jpeg"
    },
    {
      "uri": "textures/dice_hipoly_baseColor.jpeg"
    },
    {
      "uri": "textures/dice_hipoly_metallicRoughness.png"
    },
    {
      "uri": "textures/dice_hipoly_normal.png"
    }
  ],
  "materials": [
    {
      "doubleSided": true,
      "name": "dice_lowpoly",
      "normalTexture": {
        "index": 2
      },
      "pbrMetallicRoughness": {
        "baseColorTexture": {
          "index": 0
        },
        "metallicRoughnessTexture": {
          "index": 1
        }
      }
    },
    {
      "doubleSided": true,
      "name": "dice_hipoly",
      "normalTexture": {
        "index": 5
      },
      "pbrMetallicRoughness": {
        "baseColorTexture": {
          "index": 3
        },
        "metallicRoughnessTexture": {
          "index": 4
        }
      }
    }
  ],
  "meshes": [
    {
      "name": "dice_lowpoly_dice_lowpoly_0",
      "primitives": [
        {
          "attributes": {
            "NORMAL": 1,
            "POSITION": 0,
            "TANGENT": 2,
            "TEXCOORD_0": 3,
            "TEXCOORD_1": 4,
            "TEXCOORD_2": 5
          },
          "indices": 6,
          "material": 0,
          "mode": 4
        }
      ]
    },
    {
      "name": "dice_hipoly_dice_hipoly_0",
      "primitives": [
        {
          "attributes": {
            "NORMAL": 8,
            "POSITION": 7,
            "TANGENT": 9,
            "TEXCOORD_0": 10,
            "TEXCOORD_1": 11,
            "TEXCOORD_2": 12
          },
          "indices": 13,
          "material": 1,
          "mode": 4
        }
      ]
    }
  ],
  "nodes": [
    {
      "children": [1],
      "matrix": [
        1.0, 0.0, 0.0, 0.0, 0.0, 2.220446049250313e-16, -1.0, 0.0, 0.0, 1.0,
        2.220446049250313e-16, 0.0, 0.0, 0.0, 0.0, 1.0
      ],
      "name": "Sketchfab_model"
    },
    {
      "children": [2],
      "matrix": [
        1.0, 0.0, 0.0, 0.0, 0.0, 0.0, 1.0, 0.0, 0.0, -1.0, 0.0, 0.0, 0.0, 0.0,
        0.0, 1.0
      ],
      "name": "6cfdffc6cd8b4aa189922d4a45c73fa9.fbx"
    },
    {
      "children": [3, 5],
      "name": "RootNode"
    },
    {
      "children": [4],
      "matrix": [
        92.45692349585377, -2.0672210276906355e-6, 38.10140808004133, 0.0,
        38.10140808004045, -1.7143967712129893e-5, -92.45692349585258, 0.0,
        8.443382062961469e-6, 99.99999999999851, -1.5063144798155292e-5, 0.0,
        -0.6013572216033936, 0.758978545665741, -1.6944082975387573, 1.0
      ],
      "name": "dice_lowpoly"
    },
    {
      "mesh": 0,
      "name": "dice_lowpoly_dice_lowpoly_0"
    },
    {
      "children": [6],
      "matrix": [
        92.45692463136416, -2.760065825890834e-6, 38.10140532461027, 0.0,
        -38.10140532460437, -6.283836344600502e-5, 92.45692463134527, 0.0,
        2.1390427570877613e-5, -99.99999999998022, -5.915004219758657e-5, 0.0,
        0.5741596221923828, 0.758978545665741, 1.6064444780349731, 1.0
      ],
      "name": "dice_hipoly"
    },
    {
      "mesh": 1,
      "name": "dice_hipoly_dice_hipoly_0"
    }
  ],
  "samplers": [
    {
      "magFilter": 9729,
      "minFilter": 9987,
      "wrapS": 10497,
      "wrapT": 10497
    }
  ],
  "scene": 0,
  "scenes": [
    {
      "name": "Sketchfab_Scene",
      "nodes": [0]
    }
  ],
  "textures": [
    {
      "sampler": 0,
      "source": 0
    },
    {
      "sampler": 0,
      "source": 1
    },
    {
      "sampler": 0,
      "source": 2
    },
    {
      "sampler": 0,
      "source": 3
    },
    {
      "sampler": 0,
      "source": 4
    },
    {
      "sampler": 0,
      "source": 5
    }
  ]
}
